<svg width="182" height="47" viewBox="0 0 182 47" fill="none" xmlns="http://www.w3.org/2000/svg">
<path d="M30.4194 17.7164L40.0545 27.3515L50.0004 17.4056L59.9464 27.3515L69.5815 17.7164M30.4194 17.7164C33.2167 8.08124 40.6761 2.48665 50.0004 2.48665C59.3248 2.48665 66.7842 8.08124 69.5815 17.7164M30.4194 17.7164C26.6896 30.7704 36.3248 43.5137 50.0004 43.5137C63.6761 43.5137 73.3112 30.7704 69.5815 17.7164" stroke="#888888" stroke-width="3" stroke-linecap="round" stroke-linejoin="round"/>
<path d="M84.1889 20V10.1818H86.4006V11.8501H86.5156C86.7202 11.2876 87.0589 10.8487 87.532 10.5334C88.005 10.2138 88.5696 10.054 89.2259 10.054C89.8906 10.054 90.451 10.2159 90.907 10.5398C91.3672 10.8594 91.6911 11.2962 91.8786 11.8501H91.9808C92.1982 11.3047 92.5646 10.87 93.0803 10.5462C93.6001 10.218 94.2159 10.054 94.9276 10.054C95.831 10.054 96.5682 10.3395 97.1392 10.9105C97.7102 11.4815 97.9957 12.3146 97.9957 13.4098V20H95.6754V13.7678C95.6754 13.1584 95.5135 12.7131 95.1896 12.4318C94.8658 12.1463 94.4695 12.0036 94.0007 12.0036C93.4425 12.0036 93.0057 12.1783 92.6903 12.5277C92.3793 12.8729 92.2237 13.3224 92.2237 13.8764V20H89.9545V13.6719C89.9545 13.1648 89.8011 12.7599 89.4943 12.4574C89.1918 12.1548 88.7955 12.0036 88.3054 12.0036C87.973 12.0036 87.6705 12.0888 87.3977 12.2592C87.125 12.4254 86.9077 12.6619 86.7457 12.9688C86.5838 13.2713 86.5028 13.625 86.5028 14.0298V20H84.1889ZM101.063 20V10.1818H103.377V20H101.063ZM102.227 8.78835C101.86 8.78835 101.545 8.6669 101.281 8.42401C101.016 8.17685 100.884 7.88068 100.884 7.53551C100.884 7.18608 101.016 6.88991 101.281 6.64702C101.545 6.39986 101.86 6.27628 102.227 6.27628C102.597 6.27628 102.913 6.39986 103.173 6.64702C103.437 6.88991 103.569 7.18608 103.569 7.53551C103.569 7.88068 103.437 8.17685 103.173 8.42401C102.913 8.6669 102.597 8.78835 102.227 8.78835ZM111.379 10.1818V11.9716H105.735V10.1818H111.379ZM107.129 7.82955H109.442V17.0469C109.442 17.358 109.489 17.5966 109.583 17.7628C109.681 17.9247 109.809 18.0355 109.967 18.0952C110.124 18.1548 110.299 18.1847 110.491 18.1847C110.636 18.1847 110.768 18.174 110.887 18.1527C111.011 18.1314 111.104 18.1122 111.168 18.0952L111.558 19.9041C111.435 19.9467 111.258 19.9936 111.028 20.0447C110.802 20.0959 110.525 20.1257 110.197 20.1342C109.617 20.1513 109.095 20.0639 108.631 19.8722C108.166 19.6761 107.798 19.3736 107.525 18.9645C107.256 18.5554 107.124 18.044 107.129 17.4304V7.82955ZM118.212 20.1918C117.253 20.1918 116.422 19.9808 115.719 19.5589C115.016 19.1371 114.47 18.5469 114.082 17.7884C113.699 17.0298 113.507 16.1435 113.507 15.1293C113.507 14.1151 113.699 13.2266 114.082 12.4638C114.47 11.701 115.016 11.1087 115.719 10.6868C116.422 10.2649 117.253 10.054 118.212 10.054C119.17 10.054 120.001 10.2649 120.705 10.6868C121.408 11.1087 121.951 11.701 122.335 12.4638C122.722 13.2266 122.916 14.1151 122.916 15.1293C122.916 16.1435 122.722 17.0298 122.335 17.7884C121.951 18.5469 121.408 19.1371 120.705 19.5589C120.001 19.9808 119.17 20.1918 118.212 20.1918ZM118.224 18.3381C118.744 18.3381 119.179 18.1953 119.528 17.9098C119.878 17.62 120.138 17.2322 120.308 16.7464C120.483 16.2607 120.57 15.7195 120.57 15.1229C120.57 14.522 120.483 13.9787 120.308 13.4929C120.138 13.0028 119.878 12.6129 119.528 12.3232C119.179 12.0334 118.744 11.8885 118.224 11.8885C117.692 11.8885 117.249 12.0334 116.895 12.3232C116.545 12.6129 116.283 13.0028 116.109 13.4929C115.938 13.9787 115.853 14.522 115.853 15.1229C115.853 15.7195 115.938 16.2607 116.109 16.7464C116.283 17.2322 116.545 17.62 116.895 17.9098C117.249 18.1953 117.692 18.3381 118.224 18.3381ZM125.6 20V10.1818H127.844V11.8182H127.946C128.125 11.2514 128.432 10.8146 128.867 10.5078C129.305 10.1967 129.806 10.0412 130.369 10.0412C130.496 10.0412 130.639 10.0476 130.797 10.0604C130.959 10.0689 131.093 10.0838 131.2 10.1051V12.2337C131.102 12.1996 130.946 12.1697 130.733 12.1442C130.524 12.1143 130.322 12.0994 130.126 12.0994C129.704 12.0994 129.325 12.1911 128.988 12.3743C128.656 12.5533 128.393 12.8026 128.202 13.1222C128.01 13.4418 127.914 13.8104 127.914 14.228V20H125.6ZM139.715 15.8707V10.1818H142.029V20H139.785V18.255H139.683C139.461 18.8047 139.097 19.2543 138.59 19.6037C138.087 19.9531 137.467 20.1278 136.73 20.1278C136.086 20.1278 135.517 19.9851 135.023 19.6996C134.533 19.4098 134.149 18.9901 133.872 18.4403C133.595 17.8864 133.457 17.2173 133.457 16.4332V10.1818H135.771V16.0753C135.771 16.6974 135.941 17.1918 136.282 17.5582C136.623 17.9247 137.071 18.108 137.625 18.108C137.965 18.108 138.296 18.0249 138.615 17.8587C138.935 17.6925 139.197 17.4453 139.401 17.1172C139.61 16.7848 139.715 16.3693 139.715 15.8707ZM147.442 14.2472V20H145.128V10.1818H147.34V11.8501H147.455C147.681 11.3004 148.041 10.8636 148.535 10.5398C149.034 10.2159 149.649 10.054 150.382 10.054C151.06 10.054 151.65 10.1989 152.153 10.4886C152.66 10.7784 153.052 11.1982 153.329 11.7479C153.61 12.2976 153.749 12.9645 153.745 13.7486V20H151.431V14.1065C151.431 13.4503 151.26 12.9368 150.919 12.5661C150.583 12.1953 150.116 12.0099 149.519 12.0099C149.115 12.0099 148.754 12.0994 148.439 12.2784C148.128 12.4531 147.883 12.7067 147.704 13.0391C147.529 13.3714 147.442 13.7741 147.442 14.2472ZM91.9489 32.777L89.8395 33.0071C89.7798 32.794 89.6754 32.5938 89.5263 32.4062C89.3814 32.2188 89.1854 32.0675 88.9382 31.9524C88.6911 31.8374 88.3885 31.7798 88.0305 31.7798C87.549 31.7798 87.1442 31.8842 86.8161 32.093C86.4922 32.3018 86.3324 32.5724 86.3366 32.9048C86.3324 33.1903 86.4368 33.4226 86.6499 33.6016C86.8672 33.7805 87.2251 33.9276 87.7237 34.0426L89.3984 34.4006C90.3274 34.6009 91.0178 34.9183 91.4695 35.353C91.9254 35.7876 92.1555 36.3565 92.1598 37.0597C92.1555 37.6776 91.9744 38.223 91.6165 38.696C91.2628 39.1648 90.7706 39.5312 90.1399 39.7955C89.5092 40.0597 88.7848 40.1918 87.9666 40.1918C86.7649 40.1918 85.7976 39.9403 85.0646 39.4375C84.3317 38.9304 83.8949 38.2251 83.7543 37.3217L86.0107 37.1044C86.1129 37.5476 86.3303 37.8821 86.6626 38.108C86.995 38.3338 87.4276 38.4467 87.9602 38.4467C88.5099 38.4467 88.951 38.3338 89.2834 38.108C89.62 37.8821 89.7884 37.603 89.7884 37.2706C89.7884 36.9893 89.6797 36.7571 89.4624 36.5739C89.2493 36.3906 88.9169 36.25 88.4652 36.152L86.7905 35.8004C85.8487 35.6044 85.152 35.2741 84.7003 34.8097C84.2486 34.3409 84.0249 33.7486 84.0291 33.0327C84.0249 32.4276 84.1889 31.9034 84.5213 31.4602C84.858 31.0128 85.3246 30.6676 85.9212 30.4247C86.522 30.1776 87.2145 30.054 87.9986 30.054C89.1491 30.054 90.0547 30.299 90.7152 30.7891C91.38 31.2791 91.7912 31.9418 91.9489 32.777ZM99.6905 30.1818V31.9716H94.0463V30.1818H99.6905ZM95.4398 27.8295H97.7537V37.0469C97.7537 37.358 97.8006 37.5966 97.8944 37.7628C97.9924 37.9247 98.1202 38.0355 98.2779 38.0952C98.4356 38.1548 98.6103 38.1847 98.802 38.1847C98.9469 38.1847 99.079 38.174 99.1983 38.1527C99.3219 38.1314 99.4157 38.1122 99.4796 38.0952L99.8695 39.9041C99.7459 39.9467 99.5691 39.9936 99.339 40.0447C99.1131 40.0959 98.8361 40.1257 98.508 40.1342C97.9285 40.1513 97.4064 40.0639 96.9419 39.8722C96.4775 39.6761 96.1088 39.3736 95.8361 38.9645C95.5677 38.5554 95.4356 38.044 95.4398 37.4304V27.8295ZM108.604 35.8707V30.1818H110.917V40H108.674V38.255H108.572C108.35 38.8047 107.986 39.2543 107.479 39.6037C106.976 39.9531 106.356 40.1278 105.618 40.1278C104.975 40.1278 104.406 39.9851 103.912 39.6996C103.422 39.4098 103.038 38.9901 102.761 38.4403C102.484 37.8864 102.346 37.2173 102.346 36.4332V30.1818H104.66V36.0753C104.66 36.6974 104.83 37.1918 105.171 37.5582C105.512 37.9247 105.959 38.108 106.513 38.108C106.854 38.108 107.184 38.0249 107.504 37.8587C107.824 37.6925 108.086 37.4453 108.29 37.1172C108.499 36.7848 108.604 36.3693 108.604 35.8707ZM117.66 40.1726C116.889 40.1726 116.199 39.9744 115.589 39.5781C114.98 39.1818 114.498 38.6065 114.145 37.8523C113.791 37.098 113.614 36.1818 113.614 35.1037C113.614 34.0128 113.793 33.0923 114.151 32.3423C114.513 31.5881 115.001 31.0192 115.615 30.6357C116.229 30.2479 116.912 30.054 117.667 30.054C118.242 30.054 118.715 30.152 119.086 30.348C119.457 30.5398 119.751 30.772 119.968 31.0447C120.185 31.3132 120.354 31.5668 120.473 31.8054H120.569V26.9091H122.889V40H120.613V38.4531H120.473C120.354 38.6918 120.181 38.9453 119.955 39.2138C119.729 39.478 119.431 39.7038 119.06 39.8913C118.689 40.0788 118.223 40.1726 117.66 40.1726ZM118.306 38.2741C118.796 38.2741 119.214 38.142 119.559 37.8778C119.904 37.6094 120.166 37.2365 120.345 36.7592C120.524 36.282 120.613 35.7259 120.613 35.0909C120.613 34.456 120.524 33.9041 120.345 33.4354C120.17 32.9666 119.91 32.6023 119.565 32.3423C119.224 32.0824 118.805 31.9524 118.306 31.9524C117.79 31.9524 117.36 32.0866 117.015 32.3551C116.67 32.6236 116.41 32.9943 116.235 33.4673C116.06 33.9403 115.973 34.4815 115.973 35.0909C115.973 35.7045 116.06 36.2521 116.235 36.7337C116.414 37.2109 116.676 37.5881 117.021 37.8651C117.371 38.1378 117.799 38.2741 118.306 38.2741ZM126.075 40V30.1818H128.389V40H126.075ZM127.238 28.7884C126.872 28.7884 126.556 28.6669 126.292 28.424C126.028 28.1768 125.896 27.8807 125.896 27.5355C125.896 27.1861 126.028 26.8899 126.292 26.647C126.556 26.3999 126.872 26.2763 127.238 26.2763C127.609 26.2763 127.924 26.3999 128.184 26.647C128.448 26.8899 128.58 27.1861 128.58 27.5355C128.58 27.8807 128.448 28.1768 128.184 28.424C127.924 28.6669 127.609 28.7884 127.238 28.7884ZM135.771 40.1918C134.812 40.1918 133.981 39.9808 133.278 39.5589C132.575 39.1371 132.029 38.5469 131.642 37.7884C131.258 37.0298 131.066 36.1435 131.066 35.1293C131.066 34.1151 131.258 33.2266 131.642 32.4638C132.029 31.701 132.575 31.1087 133.278 30.6868C133.981 30.2649 134.812 30.054 135.771 30.054C136.73 30.054 137.561 30.2649 138.264 30.6868C138.967 31.1087 139.51 31.701 139.894 32.4638C140.281 33.2266 140.475 34.1151 140.475 35.1293C140.475 36.1435 140.281 37.0298 139.894 37.7884C139.51 38.5469 138.967 39.1371 138.264 39.5589C137.561 39.9808 136.73 40.1918 135.771 40.1918ZM135.784 38.3381C136.303 38.3381 136.738 38.1953 137.088 37.9098C137.437 37.62 137.697 37.2322 137.867 36.7464C138.042 36.2607 138.129 35.7195 138.129 35.1229C138.129 34.522 138.042 33.9787 137.867 33.4929C137.697 33.0028 137.437 32.6129 137.088 32.3232C136.738 32.0334 136.303 31.8885 135.784 31.8885C135.251 31.8885 134.808 32.0334 134.454 32.3232C134.105 32.6129 133.843 33.0028 133.668 33.4929C133.497 33.9787 133.412 34.522 133.412 35.1229C133.412 35.7195 133.497 36.2607 133.668 36.7464C133.843 37.2322 134.105 37.62 134.454 37.9098C134.808 38.1953 135.251 38.3381 135.784 38.3381Z" fill="#888888"/>
</svg>
